FFmpeg version SVN-r25716, Copyright (c) 2000-2010 the FFmpeg developers  built on Nov 10 2010 12:23:18 with gcc 4.1.2 20080704 (Red Hat 4.1.2-48)  configuration: --enable-libmp3lame --enable-shared --disable-mmx --arch=x86_64  libavutil     50.33. 0 / 50.33. 0  libavcore      0.12. 1 /  0.12. 1  libavcodec    52.94. 4 / 52.94. 4  libavformat   52.84. 0 / 52.84. 0  libavdevice   52. 2. 2 / 52. 2. 2  libavfilter    1.59. 0 /  1.59. 0  libswscale     0.12. 0 /  0.12. 0Input #0, avi, from '/RAID10/data/converted_video_files/47566.avi':  Duration: 00:00:06.73, start: 0.000000, bitrate: 31559 kb/s    Stream #0.0: Video: msvideo1, rgb555le, 1024x1024, 30 tbr, 30 tbn, 30 tbc[buffer @ 0x8fc9510] w:1024 h:1024 pixfmt:rgb555le[ffsink @ 0x8fe6de0] auto-inserting filter 'auto-inserted scaler 0' between the filter 'src' and the filter 'out'[scale @ 0x8fe7100] w:1024 h:1024 fmt:rgb555le -> w:1024 h:1024 fmt:yuv420p flags:0x4Output #0, flv, to '/RAID10/data/converted_video_files/47566.flv':  Metadata:    encoder         : Lavf52.84.0    Stream #0.0: Video: flv, yuv420p, 1024x1024, q=2-31, 600 kb/s, 1k tbn, 24 tbcStream mapping:  Stream #0.0 -> #0.0Press [q] to stop encodingframe=    6 fps=  0 q=6.8 size=     627kB time=0.25 bitrate=20532.6kbits/s dup=0 drop=1    frame=   15 fps= 13 q=30.2 size=     725kB time=0.62 bitrate=9509.0kbits/s dup=0 drop=3    frame=   23 fps= 13 q=31.0 size=     791kB time=0.96 bitrate=6761.9kbits/s dup=0 drop=5    frame=   31 fps= 14 q=31.0 size=     905kB time=1.29 bitrate=5739.5kbits/s dup=0 drop=7    frame=   38 fps= 14 q=31.0 size=    1012kB time=1.58 bitrate=5236.1kbits/s dup=0 drop=9    frame=   45 fps= 14 q=31.0 size=    1083kB time=1.88 bitrate=4731.9kbits/s dup=0 drop=11    frame=   54 fps= 14 q=31.0 size=    1198kB time=2.25 bitrate=4361.1kbits/s dup=0 drop=13    frame=   63 fps= 14 q=31.0 size=    1318kB time=2.62 bitrate=4112.5kbits/s dup=0 drop=15    frame=   71 fps= 14 q=31.0 size=    1410kB time=2.96 bitrate=3904.6kbits/s dup=0 drop=17    frame=   77 fps= 14 q=31.0 size=    1488kB time=3.21 bitrate=3799.2kbits/s dup=0 drop=19    frame=   86 fps= 14 q=31.0 size=    1602kB time=3.58 bitrate=3663.2kbits/s dup=0 drop=21    frame=   95 fps= 15 q=31.0 size=    1649kB time=3.96 bitrate=3413.2kbits/s dup=0 drop=23    frame=  104 fps= 15 q=31.0 size=    1728kB time=4.33 bitrate=3266.8kbits/s dup=0 drop=25    frame=  112 fps= 15 q=31.0 size=    1791kB time=4.67 bitrate=3144.2kbits/s dup=0 drop=28    frame=  119 fps= 15 q=31.0 size=    1837kB time=4.96 bitrate=3035.4kbits/s dup=0 drop=29    frame=  126 fps= 14 q=31.0 size=    1913kB time=5.25 bitrate=2984.7kbits/s dup=0 drop=31    frame=  130 fps= 14 q=31.0 size=    1928kB time=5.42 bitrate=2916.2kbits/s dup=0 drop=32    frame=  140 fps= 14 q=31.0 size=    1980kB time=5.83 bitrate=2780.9kbits/s dup=0 drop=34    frame=  148 fps= 15 q=31.0 size=    2035kB time=6.17 bitrate=2703.5kbits/s dup=0 drop=37    frame=  157 fps= 15 q=24.8 size=    2101kB time=6.54 bitrate=2631.5kbits/s dup=0 drop=39    frame=  162 fps= 15 q=31.0 Lsize=    2145kB time=6.75 bitrate=2602.9kbits/s dup=0 drop=40    video:2142kB audio:0kB global headers:0kB muxing overhead 0.127745%